<svg width="56" height="56" viewBox="0 0 56 56" fill="none" xmlns="http://www.w3.org/2000/svg">
<g clip-path="url(#clip0_12_150)">
<path d="M51.0693 13.9256C50.9662 13.7874 50.8369 13.6708 50.6887 13.5826C50.5406 13.4944 50.3765 13.4362 50.2058 13.4114C50.0352 13.3867 49.8613 13.3957 49.6942 13.4382C49.5271 13.4806 49.3699 13.5556 49.2318 13.6587L28.0612 29.4612C27.9854 29.518 27.8933 29.5487 27.7987 29.5487C27.704 29.5487 27.6119 29.518 27.5362 29.4612L6.78116 13.5887C6.64413 13.4842 6.48785 13.4076 6.32124 13.3635C6.15463 13.3193 5.98095 13.3084 5.81012 13.3313C5.63929 13.3543 5.47465 13.4107 5.32561 13.4972C5.17657 13.5838 5.04604 13.6989 4.94147 13.8359C4.83691 13.973 4.76035 14.1292 4.71619 14.2959C4.67202 14.4625 4.6611 14.6361 4.68405 14.807C4.70701 14.9778 4.76338 15.1424 4.84996 15.2915C4.93654 15.4405 5.05163 15.5711 5.18866 15.6756L21.5074 28.1575L5.36803 40.32C5.229 40.4237 5.11175 40.5538 5.02298 40.7028C4.93421 40.8518 4.87566 41.0168 4.85068 41.1885C4.82569 41.3601 4.83476 41.535 4.87736 41.7032C4.91997 41.8713 4.99527 42.0294 5.09897 42.1684C5.20267 42.3075 5.33275 42.4247 5.48176 42.5135C5.63078 42.6023 5.79582 42.6608 5.96747 42.6858C6.13911 42.7108 6.31399 42.7017 6.48213 42.6591C6.65027 42.6165 6.80837 42.5412 6.94741 42.4375L23.673 29.8112L25.9393 31.5612C26.4677 31.9657 27.1135 32.1871 27.7789 32.1918C28.4444 32.1966 29.0933 31.9844 29.6274 31.5875L32.0074 29.8112L48.9299 42.4375C49.0681 42.5406 49.2252 42.6155 49.3923 42.6579C49.5595 42.7003 49.7333 42.7094 49.9039 42.6846C50.0746 42.6598 50.2386 42.6017 50.3868 42.5135C50.5349 42.4253 50.6643 42.3088 50.7674 42.1706C50.8705 42.0324 50.9454 41.8753 50.9878 41.7082C51.0302 41.5411 51.0393 41.3672 51.0145 41.1966C50.9897 41.026 50.9316 40.8619 50.8434 40.7137C50.7552 40.5656 50.6387 40.4363 50.5005 40.3331L34.1993 28.1531L50.8024 15.75C51.0778 15.542 51.2602 15.234 51.3101 14.8926C51.3601 14.5511 51.2736 14.2037 51.0693 13.9256Z" fill="#444649"/>
<path d="M49.4375 8.3125H6.5625C4.82202 8.3125 3.15282 9.0039 1.92211 10.2346C0.691404 11.4653 0 13.1345 0 14.875L0 41.125C0 42.8655 0.691404 44.5347 1.92211 45.7654C3.15282 46.9961 4.82202 47.6875 6.5625 47.6875H49.4375C51.178 47.6875 52.8472 46.9961 54.0779 45.7654C55.3086 44.5347 56 42.8655 56 41.125V14.875C56 13.1345 55.3086 11.4653 54.0779 10.2346C52.8472 9.0039 51.178 8.3125 49.4375 8.3125ZM53.375 41.125C53.375 42.1693 52.9602 43.1708 52.2217 43.9092C51.4833 44.6477 50.4818 45.0625 49.4375 45.0625H6.5625C5.51821 45.0625 4.51669 44.6477 3.77827 43.9092C3.03984 43.1708 2.625 42.1693 2.625 41.125V14.875C2.625 13.8307 3.03984 12.8292 3.77827 12.0908C4.51669 11.3523 5.51821 10.9375 6.5625 10.9375H49.4375C50.4818 10.9375 51.4833 11.3523 52.2217 12.0908C52.9602 12.8292 53.375 13.8307 53.375 14.875V41.125Z" fill="#444649"/>
</g>
<defs>
<clipPath id="clip0_12_150">
<rect width="56" height="56" fill="white"/>
</clipPath>
</defs>
</svg>
