<svg width="56" height="56" viewBox="0 0 56 56" fill="none" xmlns="http://www.w3.org/2000/svg">
<g clip-path="url(#clip0_12_155)">
<path fill-rule="evenodd" clip-rule="evenodd" d="M28.0254 7.30188C16.4141 7.30188 7 16.716 7 28.3308C7 37.6206 13.0244 45.5018 21.3806 48.2834C22.4324 48.4759 22.8156 47.8266 22.8156 47.2684C22.8156 46.7705 22.7981 45.4475 22.7876 43.6931C16.9382 44.9636 15.7045 40.8739 15.7045 40.8739C14.7481 38.4458 13.3691 37.7991 13.3691 37.7991C11.4599 36.4936 13.5135 36.5199 13.5135 36.5199C15.624 36.6695 16.7344 38.6873 16.7344 38.6873C18.6104 41.9003 21.6562 40.9719 22.8541 40.4346C23.0457 39.0758 23.5874 38.1491 24.1894 37.6233C19.5204 37.093 14.6108 35.2879 14.6108 27.2309C14.6108 24.9358 15.4306 23.058 16.7755 21.588C16.5594 21.056 15.8375 18.9184 16.9811 16.023C16.9811 16.023 18.7469 15.4578 22.764 18.179C24.4414 17.7126 26.2404 17.479 28.028 17.4711C29.8139 17.479 31.6129 17.7126 33.2929 18.179C37.3074 15.4578 39.0696 16.023 39.0696 16.023C40.2168 18.9184 39.4949 21.056 39.2787 21.588C40.6263 23.058 41.4409 24.9358 41.4409 27.2309C41.4409 35.3089 36.5234 37.086 31.8386 37.6066C32.5946 38.2559 33.2666 39.5386 33.2666 41.5013C33.2666 44.3118 33.2413 46.5798 33.2413 47.2684C33.2413 47.8319 33.6192 48.4864 34.6867 48.2808C43.036 45.4939 49.0551 37.618 49.0551 28.3308C49.0551 16.716 39.6401 7.30188 28.0254 7.30188Z" fill="#444649"/>
</g>
<defs>
<clipPath id="clip0_12_155">
<rect width="56" height="56" fill="white"/>
</clipPath>
</defs>
</svg>
