<svg width="92" height="92" viewBox="0 0 92 92" fill="none" xmlns="http://www.w3.org/2000/svg">
<path d="M53.6666 54.4218C53.6673 53.7496 53.8448 53.0894 54.1812 52.5074C54.5176 51.9254 55.0011 51.4421 55.5833 51.106C59.2377 48.9967 62.0939 45.7405 63.7089 41.8424C65.324 37.9442 65.6076 33.6221 64.5157 29.5464C63.4239 25.4707 61.0177 21.8692 57.6702 19.3004C54.3228 16.7317 50.2213 15.3394 46.0019 15.3394C41.7824 15.3394 37.6809 16.7317 34.3335 19.3004C30.9861 21.8692 28.5798 25.4707 27.488 29.5464C26.3962 33.6221 26.6798 37.9442 28.2948 41.8424C29.9099 45.7405 32.7661 48.9967 36.4205 51.106C36.8708 51.3503 37.2676 51.6825 37.5874 52.0829C37.9072 52.4832 38.1434 52.9436 38.2822 53.4368C38.421 53.93 38.4596 54.4461 38.3955 54.9544C38.3315 55.4628 38.1662 55.9531 37.9094 56.3965C37.6526 56.8399 37.3095 57.2273 36.9004 57.5358C36.4913 57.8443 36.0245 58.0677 35.5277 58.1927C35.0308 58.3177 34.5139 58.3419 34.0075 58.2637C33.5011 58.1856 33.0155 58.0067 32.5795 57.7376C27.5479 54.833 23.595 50.3738 21.3148 45.0303C19.0345 39.6867 18.5502 33.7474 19.9345 28.105C21.3188 22.4625 24.497 17.4218 28.9914 13.7403C33.4858 10.0588 39.0537 7.93549 44.8583 7.68938C50.6628 7.44327 56.3904 9.08769 61.1804 12.3755C65.9703 15.6633 69.5638 20.417 71.4207 25.922C73.2777 31.427 73.2978 37.3859 71.4781 42.9033C69.6583 48.4208 66.0971 53.1985 61.3295 56.5186L61.3333 59.4166C61.3335 60.2215 61.0803 61.006 60.6097 61.659C60.1391 62.3119 59.4749 62.8001 58.7113 63.0545L35.7113 70.7211C34.7465 71.0424 33.6936 70.9672 32.7842 70.5122C31.8748 70.0571 31.1834 69.2595 30.8621 68.2946C30.5409 67.3298 30.616 66.2769 31.0711 65.3675C31.5261 64.4581 32.3238 63.7667 33.2886 63.4455L53.6666 56.6566V54.4256V54.4218ZM56.2886 69.1955C56.7664 69.0364 57.2707 68.973 57.773 69.0088C58.2752 69.0447 58.7655 69.1791 59.2158 69.4044C59.666 69.6298 60.0675 69.9416 60.3973 70.322C60.7271 70.7025 60.9787 71.1443 61.1378 71.622C61.2969 72.0997 61.3603 72.6041 61.3244 73.1063C61.2886 73.6086 61.1542 74.0988 60.9288 74.5491C60.7035 74.9994 60.3917 75.4009 60.0112 75.7307C59.6307 76.0605 59.189 76.3121 58.7113 76.4711L35.7113 84.1378C35.2336 84.2969 34.7292 84.3603 34.2269 84.3245C33.7247 84.2886 33.2345 84.1542 32.7842 83.9289C31.8748 83.4738 31.1834 82.6761 30.8621 81.7113C30.5409 80.7465 30.616 79.6936 31.0711 78.7842C31.5261 77.8748 32.3238 77.1834 33.2886 76.8622L56.2886 69.1955Z" fill="#444649"/>
</svg>
