<svg width="45" height="45" viewBox="0 0 45 45" fill="none" xmlns="http://www.w3.org/2000/svg">
<path d="M29.6481 45C29.6481 45 33.7327 45 33.7327 40.9093V4.09074C33.7326 0 29.6481 0 29.6481 0H15.3519C15.3519 0 11.2673 0 11.2673 4.09074V40.9093C11.2674 45 15.3519 45 15.3519 45H29.6481ZM22.5 43.2967C21.3727 43.2967 20.4577 42.3817 20.4577 41.2544C20.4577 40.127 21.3727 39.2122 22.5 39.2122C23.6274 39.2122 24.5423 40.1271 24.5423 41.2544C24.5423 42.3818 23.6274 43.2967 22.5 43.2967ZM19.4365 2.49364C19.4365 2.2404 19.5571 2.04227 19.7081 2.04227H25.2918C25.4409 2.04227 25.5634 2.24449 25.5634 2.49364V2.61415C25.5634 2.86739 25.4409 3.06551 25.2918 3.06551H19.7081C19.559 3.06551 19.4365 2.8633 19.4365 2.61415V2.49364ZM13.3097 5.10574H31.6903V37.7825H13.3097V5.10574Z" fill="#444649"/>
</svg>
