<svg width="92" height="92" viewBox="0 0 92 92" fill="none" xmlns="http://www.w3.org/2000/svg">
<path d="M4.3125 57.5C3.519 57.5 2.875 56.856 2.875 56.0625V10.0625C2.875 7.68487 4.80987 5.75 7.1875 5.75H84.8125C87.1901 5.75 89.125 7.68487 89.125 10.0625V14.375C89.125 15.1685 88.481 15.8125 87.6875 15.8125C86.894 15.8125 86.25 15.1685 86.25 14.375V10.0625C86.25 9.27187 85.6031 8.625 84.8125 8.625H7.1875C6.39687 8.625 5.75 9.27187 5.75 10.0625V56.0625C5.75 56.856 5.106 57.5 4.3125 57.5Z" fill="#444649"/>
<path d="M46 89.125H30.1875C29.394 89.125 28.75 88.481 28.75 87.6875C28.75 86.894 29.394 86.25 30.1875 86.25H33.0625C35.4401 86.25 37.375 84.3151 37.375 81.9375V74.75C37.375 73.9565 38.019 73.3125 38.8125 73.3125C39.606 73.3125 40.25 73.9565 40.25 74.75V81.9375C40.25 83.5561 39.7124 85.0483 38.8096 86.25H46C46.7935 86.25 47.4375 86.894 47.4375 87.6875C47.4375 88.481 46.7935 89.125 46 89.125Z" fill="#444649"/>
<path d="M44.5625 74.75H7.1875C4.80987 74.75 2.875 72.8151 2.875 70.4375V61.8125C2.875 61.019 3.519 60.375 4.3125 60.375H44.5625C45.356 60.375 46 61.019 46 61.8125C46 62.606 45.356 63.25 44.5625 63.25H5.75V70.4375C5.75 71.2281 6.39687 71.875 7.1875 71.875H44.5625C45.356 71.875 46 72.519 46 73.3125C46 74.106 45.356 74.75 44.5625 74.75Z" fill="#444649"/>
<path d="M61.8125 25.875H76.1875C76.981 25.875 77.625 25.231 77.625 24.4375C77.625 23.644 76.981 23 76.1875 23H61.8125C61.019 23 60.375 23.644 60.375 24.4375C60.375 25.231 61.019 25.875 61.8125 25.875Z" fill="#444649"/>
<path d="M67.5625 83.375H70.4375C71.231 83.375 71.875 82.731 71.875 81.9375C71.875 81.144 71.231 80.5 70.4375 80.5H67.5625C66.769 80.5 66.125 81.144 66.125 81.9375C66.125 82.731 66.769 83.375 67.5625 83.375Z" fill="#444649"/>
<path d="M81.9375 89.125H56.0625C52.0979 89.125 48.875 85.9021 48.875 81.9375V24.4375C48.875 20.4729 52.0979 17.25 56.0625 17.25H81.9375C85.9021 17.25 89.125 20.4729 89.125 24.4375V81.9375C89.125 85.9021 85.9021 89.125 81.9375 89.125ZM56.0625 20.125C53.6849 20.125 51.75 22.0599 51.75 24.4375V81.9375C51.75 84.3151 53.6849 86.25 56.0625 86.25H81.9375C84.3151 86.25 86.25 84.3151 86.25 81.9375V24.4375C86.25 22.0599 84.3151 20.125 81.9375 20.125H56.0625Z" fill="#444649"/>
</svg>
