<svg width="92" height="92" viewBox="0 0 92 92" fill="none" xmlns="http://www.w3.org/2000/svg">
<path d="M66.7646 25.2355C65.3017 23.7723 63.3564 22.9667 61.288 22.9667C59.2195 22.9667 57.2741 23.7723 55.8111 25.2355C54.3483 26.6983 53.5427 28.6434 53.5427 30.7119C53.5427 32.7807 54.3483 34.7258 55.8111 36.1887C57.2741 37.6517 59.2189 38.4569 61.2872 38.4572C61.288 38.4572 61.288 38.4572 61.288 38.4572C63.3564 38.4572 65.3017 37.6517 66.7646 36.1887C68.2275 34.7256 69.0331 32.7806 69.0331 30.7119C69.0329 28.6434 68.2273 26.6984 66.7646 25.2355ZM63.6837 33.1079C63.0436 33.7482 62.1933 34.101 61.2877 34.101C60.3825 34.1008 59.5316 33.7482 58.8918 33.1079C58.2517 32.4683 57.899 31.6175 57.899 30.712C57.899 29.8072 58.2515 28.9561 58.8918 28.3161C59.5316 27.6761 60.383 27.3236 61.2877 27.3236C62.1926 27.3236 63.0436 27.6759 63.6837 28.3161C65.0052 29.6372 65.0052 31.7868 63.6837 33.1079Z" fill="#444649"/>
<path d="M7.16253 72.1301C6.60513 72.1301 6.04784 71.9177 5.62245 71.4923C4.77168 70.6416 4.77168 69.2618 5.62245 68.4114L18.2184 55.8152C19.0692 54.9646 20.4485 54.9646 21.2993 55.8152C22.15 56.6659 22.15 58.0457 21.2993 58.8963L8.70284 71.4923C8.27757 71.9177 7.72017 72.1301 7.16253 72.1301Z" fill="#444649"/>
<path d="M9.97904 84.1998C9.42129 84.1998 8.864 83.987 8.43861 83.5617C7.58784 82.711 7.58784 81.3319 8.43861 80.4813L21.5677 67.3521C22.4185 66.5013 23.7978 66.5013 24.6482 67.3521C25.499 68.2028 25.499 69.5823 24.6482 70.4329L11.5193 83.5617C11.0941 83.987 10.5363 84.1998 9.97904 84.1998Z" fill="#444649"/>
<path d="M22.0484 87.016C21.4907 87.016 20.9333 86.8036 20.508 86.3782C19.6572 85.5276 19.6572 84.148 20.508 83.2975L33.1042 70.7009C33.9548 69.8506 35.3343 69.8503 36.1847 70.7009C37.0355 71.5515 37.0355 72.9313 36.1847 73.7821L23.5888 86.3782C23.1634 86.8035 22.606 87.016 22.0484 87.016Z" fill="#444649"/>
<path d="M86.378 5.62248C85.8833 5.12798 85.181 4.90052 84.4916 5.01172C84.2384 5.05278 78.2006 6.04442 69.9729 9.18806C65.1459 11.032 60.5601 13.2403 56.3421 15.7518C51.1626 18.8354 46.5261 22.3897 42.5537 26.317L26.1023 29.5197C25.6777 29.6023 25.2875 29.81 24.9808 30.1151L10.0761 44.9719C9.39676 45.6488 9.24036 46.6898 9.68966 47.5365C10.0726 48.2576 10.8187 48.6933 11.613 48.6933C11.7513 48.6933 11.8908 48.6802 12.0303 48.6534L28.8415 45.3802C27.7472 47.5274 26.7233 49.7565 25.773 52.0667C25.439 52.88 25.6259 53.814 26.2474 54.4361L30.3656 58.5543L26.5396 62.3804C25.6888 63.2312 25.6888 64.6102 26.5396 65.4609C26.965 65.8863 27.5223 66.099 28.0802 66.099C28.6376 66.099 29.1949 65.8863 29.6203 65.4612L33.4464 61.6351L37.5646 65.7536C37.9815 66.1698 38.5386 66.3916 39.1056 66.3916C39.3843 66.3916 39.6658 66.3379 39.9335 66.2276C42.244 65.2775 44.4731 64.2536 46.6197 63.1596L43.3474 79.971C43.1642 80.9121 43.6177 81.862 44.4639 82.3115C44.7866 82.4826 45.1369 82.566 45.485 82.566C46.0505 82.566 46.6095 82.3454 47.028 81.9251L61.8846 67.0206C62.19 66.7144 62.3974 66.3236 62.4804 65.899L65.6826 49.4477C69.6096 45.4748 73.1645 40.8389 76.2483 35.6591C78.7592 31.4406 80.9679 26.8549 82.8122 22.0283C85.9551 13.7999 86.9474 7.76275 86.9882 7.50952C87.0994 6.8186 86.8718 6.11664 86.378 5.62248ZM18.2152 43.0101L27.5864 33.6694L37.6689 31.7064C35.4822 34.3964 33.4536 37.2993 31.5915 40.406L18.2152 43.0101ZM58.3302 64.4139L48.9896 73.7852L51.5936 60.4088C54.701 58.5467 57.6034 56.5184 60.2931 54.3313L58.3302 64.4139ZM78.7013 20.5777C75.9511 27.7503 70.8801 38.0924 62.344 46.6287C58.4144 50.558 53.8386 54.0508 48.6717 57.0751C48.5792 57.1212 48.4894 57.1733 48.4046 57.2322C45.639 58.8356 42.7046 60.3059 39.6099 61.6369L36.5272 58.5539L42.7499 52.3317C43.6003 51.481 43.6003 50.1016 42.7499 49.2508C41.8991 48.4002 40.5198 48.4003 39.669 49.2508L33.4465 55.473L30.3638 52.39C31.6953 49.295 33.1653 46.3602 34.7692 43.5939C34.8276 43.5097 34.8786 43.4214 34.9245 43.33C37.9487 38.1621 41.4417 33.5858 45.3721 29.6554C53.908 21.1195 64.25 16.0487 71.4227 13.2984C75.7809 11.6266 79.5327 10.5843 82.013 9.98674C81.4153 12.4674 80.3728 16.2194 78.7013 20.5777Z" fill="#444649"/>
</svg>
