<svg width="92" height="92" viewBox="0 0 92 92" fill="none" xmlns="http://www.w3.org/2000/svg">
<path d="M40.7833 45.8261C40.7833 48.9742 43.3378 51.5272 46.4845 51.5272C48.6953 51.5272 50.59 50.2565 51.5358 48.4179L51.5516 48.4323L61.9591 29.6556L43.6885 40.8595L43.7058 40.8768C41.9707 41.8557 40.7833 43.6928 40.7833 45.8261Z" fill="#444649"/>
<path d="M69.4528 18.6602C63.6108 13.5542 56.0625 10.294 47.4375 9.80664V18.4705C54.625 18.9276 58.8599 21.2103 63.112 24.7725L69.4528 18.6602Z" fill="#444649"/>
<path d="M73.5225 43.125H82.1762C81.5955 34.5 78.2216 27.4132 72.9834 21.6057L66.8611 27.6906C70.5497 31.9168 72.9762 37.375 73.5225 43.125Z" fill="#444649"/>
<path d="M73.5627 47.4371C72.647 61.8121 60.7373 73.2129 46.1898 73.2129C31.0457 73.2129 18.2721 60.9309 18.2721 45.7882C18.2721 31.373 30.1875 19.5783 43.125 18.4714V9.80762C24.4375 10.9274 9.64709 26.6508 9.64709 45.8256C9.64709 65.7249 26.0633 81.8379 45.9627 81.8379C65.2712 81.8379 81.3108 66.1246 82.2322 47.4371H73.5627Z" fill="#444649"/>
</svg>
