<svg width="150" height="150" viewBox="0 0 150 150" fill="none" xmlns="http://www.w3.org/2000/svg">
<path d="M75 0L139.952 37.5V112.5L75 150L10.0481 112.5V37.5L75 0Z" fill="#04C2C9"/>
<path d="M52.2987 50.36C52.2987 49.32 52.4827 48.304 52.8507 47.312C53.2347 46.304 53.7867 45.392 54.5067 44.576C55.2267 43.744 56.1067 43.088 57.1467 42.608C58.1867 42.112 59.3707 41.864 60.6987 41.864C62.2667 41.864 63.6187 42.208 64.7547 42.896C65.9067 43.584 66.7627 44.48 67.3227 45.584L64.7787 47.336C64.4907 46.696 64.1147 46.192 63.6507 45.824C63.1867 45.44 62.6907 45.176 62.1627 45.032C61.6347 44.872 61.1147 44.792 60.6027 44.792C59.7707 44.792 59.0427 44.96 58.4187 45.296C57.8107 45.632 57.2987 46.072 56.8827 46.616C56.4667 47.16 56.1547 47.768 55.9467 48.44C55.7547 49.112 55.6587 49.784 55.6587 50.456C55.6587 51.208 55.7787 51.936 56.0187 52.64C56.2587 53.328 56.5947 53.944 57.0267 54.488C57.4747 55.016 58.0027 55.44 58.6107 55.76C59.2347 56.064 59.9147 56.216 60.6507 56.216C61.1787 56.216 61.7147 56.128 62.2587 55.952C62.8027 55.776 63.3067 55.496 63.7707 55.112C64.2347 54.728 64.5947 54.232 64.8507 53.624L67.5627 55.184C67.2267 56.032 66.6747 56.752 65.9067 57.344C65.1547 57.936 64.3067 58.384 63.3627 58.688C62.4187 58.992 61.4827 59.144 60.5547 59.144C59.3387 59.144 58.2267 58.896 57.2187 58.4C56.2107 57.888 55.3387 57.216 54.6027 56.384C53.8827 55.536 53.3147 54.592 52.8987 53.552C52.4987 52.496 52.2987 51.432 52.2987 50.36ZM79.9358 46.424C79.8238 46.312 79.6158 46.16 79.3118 45.968C79.0238 45.776 78.6638 45.592 78.2318 45.416C77.8158 45.24 77.3598 45.088 76.8638 44.96C76.3678 44.816 75.8638 44.744 75.3518 44.744C74.4558 44.744 73.7758 44.912 73.3118 45.248C72.8638 45.584 72.6398 46.056 72.6398 46.664C72.6398 47.128 72.7838 47.496 73.0718 47.768C73.3598 48.04 73.7918 48.272 74.3678 48.464C74.9438 48.656 75.6638 48.864 76.5278 49.088C77.6478 49.36 78.6158 49.696 79.4318 50.096C80.2638 50.48 80.8958 50.992 81.3278 51.632C81.7758 52.256 81.9998 53.088 81.9998 54.128C81.9998 55.04 81.8318 55.824 81.4958 56.48C81.1598 57.12 80.6958 57.64 80.1038 58.04C79.5118 58.44 78.8398 58.736 78.0878 58.928C77.3358 59.104 76.5358 59.192 75.6878 59.192C74.8398 59.192 73.9918 59.104 73.1438 58.928C72.2958 58.752 71.4798 58.504 70.6958 58.184C69.9118 57.848 69.1918 57.448 68.5358 56.984L69.9998 54.128C70.1438 54.272 70.3998 54.464 70.7678 54.704C71.1358 54.928 71.5838 55.16 72.1118 55.4C72.6398 55.624 73.2158 55.816 73.8398 55.976C74.4638 56.136 75.0958 56.216 75.7358 56.216C76.6318 56.216 77.3118 56.064 77.7758 55.76C78.2398 55.456 78.4718 55.024 78.4718 54.464C78.4718 53.952 78.2878 53.552 77.9198 53.264C77.5518 52.976 77.0398 52.728 76.3838 52.52C75.7278 52.296 74.9518 52.056 74.0558 51.8C72.9838 51.496 72.0878 51.16 71.3678 50.792C70.6478 50.408 70.1118 49.928 69.7598 49.352C69.4078 48.776 69.2318 48.056 69.2318 47.192C69.2318 46.024 69.5038 45.048 70.0478 44.264C70.6078 43.464 71.3598 42.864 72.3038 42.464C73.2478 42.048 74.2958 41.84 75.4478 41.84C76.2478 41.84 76.9998 41.928 77.7038 42.104C78.4238 42.28 79.0958 42.512 79.7198 42.8C80.3438 43.088 80.9038 43.4 81.3998 43.736L79.9358 46.424ZM94.6546 46.424C94.5426 46.312 94.3346 46.16 94.0306 45.968C93.7426 45.776 93.3826 45.592 92.9506 45.416C92.5346 45.24 92.0786 45.088 91.5826 44.96C91.0866 44.816 90.5826 44.744 90.0706 44.744C89.1746 44.744 88.4946 44.912 88.0306 45.248C87.5826 45.584 87.3586 46.056 87.3586 46.664C87.3586 47.128 87.5026 47.496 87.7906 47.768C88.0786 48.04 88.5106 48.272 89.0866 48.464C89.6626 48.656 90.3826 48.864 91.2466 49.088C92.3666 49.36 93.3346 49.696 94.1506 50.096C94.9826 50.48 95.6146 50.992 96.0466 51.632C96.4946 52.256 96.7186 53.088 96.7186 54.128C96.7186 55.04 96.5506 55.824 96.2146 56.48C95.8786 57.12 95.4146 57.64 94.8226 58.04C94.2306 58.44 93.5586 58.736 92.8066 58.928C92.0546 59.104 91.2546 59.192 90.4066 59.192C89.5586 59.192 88.7106 59.104 87.8626 58.928C87.0146 58.752 86.1986 58.504 85.4146 58.184C84.6306 57.848 83.9106 57.448 83.2546 56.984L84.7186 54.128C84.8626 54.272 85.1186 54.464 85.4866 54.704C85.8546 54.928 86.3026 55.16 86.8306 55.4C87.3586 55.624 87.9346 55.816 88.5586 55.976C89.1826 56.136 89.8146 56.216 90.4546 56.216C91.3506 56.216 92.0306 56.064 92.4946 55.76C92.9586 55.456 93.1906 55.024 93.1906 54.464C93.1906 53.952 93.0066 53.552 92.6386 53.264C92.2706 52.976 91.7586 52.728 91.1026 52.52C90.4466 52.296 89.6706 52.056 88.7746 51.8C87.7026 51.496 86.8066 51.16 86.0866 50.792C85.3666 50.408 84.8306 49.928 84.4786 49.352C84.1266 48.776 83.9506 48.056 83.9506 47.192C83.9506 46.024 84.2226 45.048 84.7666 44.264C85.3266 43.464 86.0786 42.864 87.0226 42.464C87.9666 42.048 89.0146 41.84 90.1666 41.84C90.9666 41.84 91.7186 41.928 92.4226 42.104C93.1426 42.28 93.8146 42.512 94.4386 42.8C95.0626 43.088 95.6226 43.4 96.1186 43.736L94.6546 46.424Z" fill="#444649"/>
<path d="M60.4842 117.101L57.2556 80.875H92.7446L89.5117 117.096L74.9786 121.125L60.4842 117.101Z" fill="#1572B6"/>
<path d="M75 118.046L86.7444 114.79L89.5072 83.8376H75V118.046Z" fill="#33A9DC"/>
<path d="M75 96.9621H80.8794L81.2847 92.4124H75V87.9691H75.0158H86.1406L86.0343 89.1608L84.9432 101.405H75V96.9621Z" fill="white"/>
<path d="M75.0273 108.501L75.0072 108.507L70.0593 107.17L69.743 103.626H67.3381H65.2825L65.9049 110.603L75.0057 113.13L75.0273 113.124V108.501Z" fill="#EBEBEB"/>
<path d="M80.5013 101.217L79.9665 107.167L75.0115 108.504V113.127L84.1195 110.602L84.187 109.852L84.959 101.217H80.5013Z" fill="white"/>
<path d="M75.0158 87.9691V90.7291V92.4009V92.4124H64.2978H64.2834L64.1943 91.4134L63.9916 89.1608L63.8853 87.9691H75.0158Z" fill="#EBEBEB"/>
<path d="M75.0001 96.962V99.722V101.394V101.405H70.1284H70.114L70.0249 100.406L69.8237 98.1537L69.7173 96.962H75.0001Z" fill="#EBEBEB"/>
</svg>
