<svg width="150" height="150" viewBox="0 0 150 150" fill="none" xmlns="http://www.w3.org/2000/svg">
<path d="M75 0L139.952 37.5V112.5L75 150L10.0481 112.5V37.5L75 0Z" fill="#04C2C9"/>
<path d="M56.8423 41.96V59H53.5543V51.728H45.8263V59H42.5143V41.96H45.8263V48.848H53.5543V41.96H56.8423ZM73.1411 44.864H67.6931V59H64.4051V44.864H58.9571V41.96H73.1411V44.864ZM89.1525 59V47.816L84.7845 56.144H82.9365L78.5685 47.816V59H75.2565V41.96H78.8085L83.8485 51.656L88.9365 41.96H92.4645V59H89.1525ZM96.0221 59V41.96H99.3341V56.096H108.022V59H96.0221Z" fill="#444649"/>
<path d="M60.4842 114.101L57.2542 77.875H92.746L89.5117 114.096L74.9785 118.125L60.4842 114.101Z" fill="#E44F26"/>
<path d="M75 115.046L86.7444 111.79L89.5072 80.8376H75V115.046Z" fill="#F1662A"/>
<path d="M75 94.2725H69.1206L68.7153 89.7229H75V85.2795H74.9842H63.8594L63.9658 86.4727L65.0568 98.7159H75V94.2725Z" fill="#EBEBEB"/>
<path d="M74.9999 105.811L74.9798 105.817L70.0319 104.482L69.7157 100.938H67.3108H65.2551L65.8776 107.913L74.9798 110.44L74.9999 110.434V105.811Z" fill="#EBEBEB"/>
<path d="M74.9841 94.2726V98.7159H80.4553L79.9406 104.479L74.9841 105.816V110.439L84.0936 107.913L84.1597 107.163L85.2033 95.4657L85.3126 94.2726H84.1151H74.9841Z" fill="white"/>
<path d="M74.9841 85.2795V88.0395V89.7128V89.7229H85.7021H85.7165L85.8056 88.7252L86.0083 86.4727L86.1147 85.2795H74.9841Z" fill="white"/>
</svg>
