<svg width="150" height="150" viewBox="0 0 150 150" fill="none" xmlns="http://www.w3.org/2000/svg">
<path d="M75 0L139.952 37.5V112.5L75 150L10.0481 112.5V37.5L75 0Z" fill="#04C2C9"/>
<path d="M62.1581 55.52C62.3661 55.664 62.7341 55.84 63.2621 56.048C63.7901 56.24 64.4141 56.336 65.1341 56.336C65.7581 56.336 66.2701 56.232 66.6701 56.024C67.0701 55.8 67.3741 55.472 67.5821 55.04C67.8061 54.608 67.9501 54.048 68.0141 53.36C68.0941 52.672 68.1341 51.848 68.1341 50.888V41.96H71.4461V50.624C71.4461 51.904 71.3741 53.072 71.2301 54.128C71.0861 55.184 70.8061 56.096 70.3901 56.864C69.9741 57.632 69.3421 58.224 68.4941 58.64C67.6621 59.056 66.5501 59.264 65.1581 59.264C64.3901 59.264 63.7021 59.176 63.0941 59C62.4861 58.824 61.9261 58.56 61.4141 58.208L62.1581 55.52ZM84.9632 46.424C84.8512 46.312 84.6432 46.16 84.3392 45.968C84.0512 45.776 83.6912 45.592 83.2592 45.416C82.8432 45.24 82.3872 45.088 81.8912 44.96C81.3952 44.816 80.8912 44.744 80.3792 44.744C79.4832 44.744 78.8032 44.912 78.3392 45.248C77.8912 45.584 77.6672 46.056 77.6672 46.664C77.6672 47.128 77.8112 47.496 78.0992 47.768C78.3872 48.04 78.8192 48.272 79.3952 48.464C79.9712 48.656 80.6912 48.864 81.5552 49.088C82.6752 49.36 83.6432 49.696 84.4592 50.096C85.2912 50.48 85.9232 50.992 86.3552 51.632C86.8032 52.256 87.0272 53.088 87.0272 54.128C87.0272 55.04 86.8592 55.824 86.5232 56.48C86.1872 57.12 85.7232 57.64 85.1312 58.04C84.5392 58.44 83.8672 58.736 83.1152 58.928C82.3632 59.104 81.5632 59.192 80.7152 59.192C79.8672 59.192 79.0192 59.104 78.1712 58.928C77.3232 58.752 76.5072 58.504 75.7232 58.184C74.9392 57.848 74.2192 57.448 73.5632 56.984L75.0272 54.128C75.1712 54.272 75.4272 54.464 75.7952 54.704C76.1632 54.928 76.6112 55.16 77.1392 55.4C77.6672 55.624 78.2432 55.816 78.8672 55.976C79.4912 56.136 80.1232 56.216 80.7632 56.216C81.6592 56.216 82.3392 56.064 82.8032 55.76C83.2672 55.456 83.4992 55.024 83.4992 54.464C83.4992 53.952 83.3152 53.552 82.9472 53.264C82.5792 52.976 82.0672 52.728 81.4112 52.52C80.7552 52.296 79.9792 52.056 79.0832 51.8C78.0112 51.496 77.1152 51.16 76.3952 50.792C75.6752 50.408 75.1392 49.928 74.7872 49.352C74.4352 48.776 74.2592 48.056 74.2592 47.192C74.2592 46.024 74.5312 45.048 75.0752 44.264C75.6352 43.464 76.3872 42.864 77.3312 42.464C78.2752 42.048 79.3232 41.84 80.4752 41.84C81.2752 41.84 82.0272 41.928 82.7312 42.104C83.4512 42.28 84.1232 42.512 84.7472 42.8C85.3712 43.088 85.9312 43.4 86.4272 43.736L84.9632 46.424Z" fill="#444649"/>
<path d="M78.9876 97.3187C79.4335 98.2228 80.1255 98.9826 80.984 99.511C81.8424 100.039 82.8326 100.315 83.8406 100.306C85.879 100.306 87.1813 99.2867 87.1813 97.8794C87.1813 96.1932 85.843 95.5952 83.6005 94.6134L82.37 94.0858C78.8208 92.5735 76.4619 90.6789 76.4619 86.674C76.4619 82.984 79.2736 80.1765 83.6666 80.1765C85.0924 80.0731 86.5171 80.3922 87.7625 81.094C89.0079 81.7959 90.0187 82.8493 90.6687 84.1225L86.8378 86.582C86.5869 85.9511 86.15 85.4115 85.5852 85.0348C85.0203 84.6581 84.3541 84.4622 83.6753 84.4732C83.3794 84.4435 83.0805 84.4757 82.7977 84.5678C82.515 84.66 82.2545 84.81 82.033 85.0085C81.8114 85.2069 81.6337 85.4493 81.511 85.7202C81.3884 85.9911 81.3235 86.2847 81.3206 86.582C81.3206 88.0584 82.2349 88.6549 84.3394 89.5692L85.5699 90.0953C89.7501 91.8879 92.1091 93.7149 92.1091 97.8233C92.1091 102.252 88.6303 104.679 83.957 104.679C82.1367 104.795 80.3217 104.381 78.7311 103.488C77.1405 102.596 75.8421 101.262 74.9928 99.6475L78.9876 97.3187ZM61.6111 97.75C62.3845 99.1214 63.0874 100.28 64.7736 100.28C66.3893 100.28 67.41 99.6475 67.41 97.1894V80.464H72.3291V97.2584C72.3291 102.351 69.342 104.67 64.9835 104.67C63.4439 104.753 61.9151 104.369 60.5984 103.567C59.2816 102.765 58.2384 101.583 57.6062 100.176L61.6111 97.75Z" fill="#F5DE19"/>
</svg>
