<svg width="150" height="150" viewBox="0 0 150 150" fill="none" xmlns="http://www.w3.org/2000/svg">
<path d="M75 0L139.952 37.5V112.5L75 150L10.0481 112.5V37.5L75 0Z" fill="#04C2C9"/>
<path d="M43.0533 59V41.96H50.5893C51.3733 41.96 52.0933 42.12 52.7493 42.44C53.4213 42.76 53.9973 43.192 54.4773 43.736C54.9733 44.28 55.3493 44.888 55.6053 45.56C55.8773 46.232 56.0133 46.92 56.0133 47.624C56.0133 48.344 55.8853 49.04 55.6293 49.712C55.3893 50.368 55.0373 50.944 54.5733 51.44C54.1093 51.936 53.5653 52.32 52.9413 52.592L56.8293 59H53.1813L49.6773 53.288H46.3653V59H43.0533ZM46.3653 50.384H50.5173C50.9333 50.384 51.3013 50.264 51.6213 50.024C51.9413 49.768 52.1973 49.432 52.3893 49.016C52.5813 48.6 52.6773 48.136 52.6773 47.624C52.6773 47.08 52.5653 46.608 52.3413 46.208C52.1173 45.792 51.8293 45.464 51.4773 45.224C51.1413 44.984 50.7733 44.864 50.3733 44.864H46.3653V50.384ZM64.1124 59.24C63.1044 59.24 62.1924 59.072 61.3764 58.736C60.5604 58.384 59.8644 57.912 59.2884 57.32C58.7124 56.712 58.2644 56.024 57.9444 55.256C57.6404 54.472 57.4884 53.648 57.4884 52.784C57.4884 51.584 57.7524 50.488 58.2804 49.496C58.8244 48.504 59.5924 47.712 60.5844 47.12C61.5924 46.512 62.7764 46.208 64.1364 46.208C65.5124 46.208 66.6884 46.512 67.6644 47.12C68.6404 47.712 69.3844 48.504 69.8964 49.496C70.4244 50.472 70.6884 51.528 70.6884 52.664C70.6884 52.856 70.6804 53.056 70.6644 53.264C70.6484 53.456 70.6324 53.616 70.6164 53.744H60.8964C60.9604 54.384 61.1444 54.944 61.4484 55.424C61.7684 55.904 62.1684 56.272 62.6484 56.528C63.1444 56.768 63.6724 56.888 64.2324 56.888C64.8724 56.888 65.4724 56.736 66.0324 56.432C66.6084 56.112 67.0004 55.696 67.2084 55.184L69.9684 55.952C69.6644 56.592 69.2244 57.16 68.6484 57.656C68.0884 58.152 67.4244 58.544 66.6564 58.832C65.8884 59.104 65.0404 59.24 64.1124 59.24ZM60.8244 51.704H67.4004C67.3364 51.064 67.1524 50.512 66.8484 50.048C66.5604 49.568 66.1764 49.2 65.6964 48.944C65.2164 48.672 64.6804 48.536 64.0884 48.536C63.5124 48.536 62.9844 48.672 62.5044 48.944C62.0404 49.2 61.6564 49.568 61.3524 50.048C61.0644 50.512 60.8884 51.064 60.8244 51.704ZM71.7836 55.28C71.7836 54.464 72.0076 53.752 72.4556 53.144C72.9196 52.52 73.5596 52.04 74.3756 51.704C75.1916 51.368 76.1276 51.2 77.1836 51.2C77.7116 51.2 78.2476 51.24 78.7916 51.32C79.3356 51.4 79.8076 51.528 80.2076 51.704V51.032C80.2076 50.232 79.9676 49.616 79.4876 49.184C79.0236 48.752 78.3276 48.536 77.3996 48.536C76.7116 48.536 76.0556 48.656 75.4316 48.896C74.8076 49.136 74.1516 49.488 73.4636 49.952L72.4316 47.84C73.2636 47.296 74.1116 46.888 74.9756 46.616C75.8556 46.344 76.7756 46.208 77.7356 46.208C79.5276 46.208 80.9196 46.656 81.9116 47.552C82.9196 48.448 83.4236 49.728 83.4236 51.392V55.4C83.4236 55.736 83.4796 55.976 83.5916 56.12C83.7196 56.264 83.9196 56.352 84.1916 56.384V59C83.9036 59.048 83.6396 59.088 83.3996 59.12C83.1756 59.152 82.9836 59.168 82.8236 59.168C82.1836 59.168 81.6956 59.024 81.3596 58.736C81.0396 58.448 80.8396 58.096 80.7596 57.68L80.6876 57.032C80.1436 57.736 79.4636 58.28 78.6476 58.664C77.8316 59.048 76.9996 59.24 76.1516 59.24C75.3196 59.24 74.5676 59.072 73.8956 58.736C73.2396 58.384 72.7196 57.912 72.3356 57.32C71.9676 56.712 71.7836 56.032 71.7836 55.28ZM79.6076 55.928C79.7836 55.736 79.9276 55.544 80.0396 55.352C80.1516 55.16 80.2076 54.984 80.2076 54.824V53.552C79.8236 53.392 79.4076 53.272 78.9596 53.192C78.5116 53.096 78.0876 53.048 77.6876 53.048C76.8556 53.048 76.1676 53.232 75.6236 53.6C75.0956 53.952 74.8316 54.424 74.8316 55.016C74.8316 55.336 74.9196 55.64 75.0956 55.928C75.2716 56.216 75.5276 56.448 75.8636 56.624C76.1996 56.8 76.5996 56.888 77.0636 56.888C77.5436 56.888 78.0156 56.8 78.4796 56.624C78.9436 56.432 79.3196 56.2 79.6076 55.928ZM92.2848 59.24C91.2608 59.24 90.3408 59.072 89.5248 58.736C88.7088 58.384 88.0128 57.904 87.4368 57.296C86.8608 56.672 86.4128 55.968 86.0928 55.184C85.7888 54.4 85.6368 53.576 85.6368 52.712C85.6368 51.528 85.9008 50.448 86.4288 49.472C86.9728 48.48 87.7408 47.688 88.7328 47.096C89.7248 46.504 90.9008 46.208 92.2608 46.208C93.6208 46.208 94.7888 46.504 95.7648 47.096C96.7408 47.688 97.4688 48.464 97.9488 49.424L94.8048 50.384C94.5328 49.92 94.1728 49.568 93.7248 49.328C93.2768 49.072 92.7808 48.944 92.2368 48.944C91.6288 48.944 91.0688 49.104 90.5568 49.424C90.0608 49.728 89.6688 50.168 89.3808 50.744C89.0928 51.304 88.9488 51.96 88.9488 52.712C88.9488 53.448 89.0928 54.104 89.3808 54.68C89.6848 55.24 90.0848 55.688 90.5808 56.024C91.0768 56.344 91.6288 56.504 92.2368 56.504C92.6208 56.504 92.9808 56.44 93.3168 56.312C93.6688 56.184 93.9808 56.008 94.2528 55.784C94.5248 55.56 94.7248 55.304 94.8528 55.016L97.9968 55.976C97.7088 56.6 97.2848 57.16 96.7248 57.656C96.1808 58.152 95.5328 58.544 94.7808 58.832C94.0448 59.104 93.2128 59.24 92.2848 59.24ZM107.512 58.352C107.24 58.464 106.912 58.592 106.528 58.736C106.144 58.88 105.728 58.992 105.28 59.072C104.848 59.168 104.408 59.216 103.96 59.216C103.368 59.216 102.824 59.112 102.328 58.904C101.832 58.696 101.432 58.368 101.128 57.92C100.84 57.456 100.696 56.856 100.696 56.12V48.896H99.0397V46.424H100.696V42.344H103.912V46.424H106.552V48.896H103.912V55.04C103.928 55.472 104.048 55.784 104.272 55.976C104.496 56.168 104.776 56.264 105.112 56.264C105.448 56.264 105.776 56.208 106.096 56.096C106.416 55.984 106.672 55.888 106.864 55.808L107.512 58.352Z" fill="#444649"/>
<path d="M74 102.097C76.2626 102.097 78.0968 100.263 78.0968 98C78.0968 95.7373 76.2626 93.9031 74 93.9031C71.7373 93.9031 69.9031 95.7373 69.9031 98C69.9031 100.263 71.7373 102.097 74 102.097Z" fill="#61DAFB"/>
<path d="M89.561 91.2437C88.7704 90.9562 87.9438 90.6687 87.0813 90.4171C87.2969 89.5546 87.4766 88.6921 87.6204 87.8656C88.375 83.1218 87.5485 79.7796 85.2485 78.4859C84.5657 78.0906 83.811 77.9109 82.9485 77.9109C80.4329 77.9109 77.2344 79.7796 74 82.9062C70.7657 79.7796 67.5672 77.9109 65.0516 77.9109C64.1891 77.9109 63.4344 78.0906 62.7516 78.4859C60.4516 79.8156 59.625 83.1578 60.3797 87.8656C60.5235 88.6921 60.7032 89.5546 60.9188 90.4171C60.0563 90.6687 59.2297 90.9203 58.4391 91.2437C53.9469 92.9687 51.5032 95.3406 51.5032 98C51.5032 100.659 53.9829 103.031 58.4391 104.756C59.2297 105.044 60.0563 105.331 60.9188 105.583C60.7032 106.445 60.5235 107.308 60.3797 108.134C59.625 112.878 60.4516 116.22 62.7516 117.514C63.4344 117.909 64.1891 118.089 65.0516 118.089C67.6032 118.089 70.8016 116.22 74 113.094C77.2344 116.22 80.4329 118.089 82.9485 118.089C83.811 118.089 84.5657 117.909 85.2485 117.514C87.5485 116.184 88.375 112.842 87.6204 108.134C87.4766 107.308 87.2969 106.445 87.0813 105.583C87.9438 105.331 88.7704 105.08 89.561 104.756C94.0532 103.031 96.4969 100.659 96.4969 98C96.4969 95.3406 94.0532 92.9687 89.561 91.2437ZM84.2422 80.2828C85.7157 81.1453 86.2188 83.8046 85.6079 87.5781C85.5 88.3328 85.3204 89.1234 85.1047 89.95C83.236 89.5187 81.2594 89.2312 79.175 89.0515C77.9532 87.3265 76.6954 85.7812 75.4375 84.3796C78.0969 81.7562 80.7922 79.9593 82.9844 79.9593C83.4516 79.9593 83.8829 80.0671 84.2422 80.2828V80.2828ZM80.2172 101.594C79.5704 102.744 78.8157 103.894 78.025 105.044C76.6954 105.152 75.3657 105.187 74 105.187C72.5985 105.187 71.2688 105.152 69.975 105.044C69.1844 103.894 68.4657 102.744 67.8188 101.594C67.136 100.408 66.4891 99.1859 65.9141 98C66.4891 96.814 67.136 95.5921 67.8188 94.4062C68.4657 93.2562 69.2204 92.1062 70.011 90.9562C71.3407 90.8484 72.6704 90.8125 74.036 90.8125C75.4375 90.8125 76.7672 90.8484 78.061 90.9562C78.8516 92.1062 79.5704 93.2562 80.2172 94.4062C80.9 95.5921 81.5469 96.814 82.1219 98C81.511 99.1859 80.9 100.372 80.2172 101.594ZM83.2 100.408C83.7391 101.666 84.1704 102.887 84.5657 104.109C83.3438 104.397 82.05 104.612 80.6844 104.792C81.1157 104.109 81.5829 103.391 81.9782 102.636C82.4094 101.881 82.8047 101.127 83.2 100.408ZM74 110.147C73.1375 109.212 72.311 108.206 71.5204 107.164C72.3469 107.2 73.1735 107.236 74 107.236C74.8266 107.236 75.6532 107.2 76.4797 107.164C75.6891 108.206 74.8625 109.212 74 110.147ZM67.3157 104.756C65.95 104.577 64.6563 104.361 63.4344 104.073C63.8297 102.887 64.261 101.63 64.8 100.372C65.1954 101.091 65.5907 101.845 66.0219 102.564C66.4532 103.355 66.8844 104.037 67.3157 104.756V104.756ZM64.8 95.5921C64.261 94.3343 63.8297 93.1125 63.4344 91.8906C64.6563 91.6031 65.95 91.3875 67.3157 91.2078C66.8844 91.8906 66.4172 92.6093 66.0219 93.364C65.5907 94.1187 65.1954 94.8734 64.8 95.5921V95.5921ZM74 85.8531C74.8625 86.7875 75.6891 87.7937 76.4797 88.8359C75.6532 88.8 74.8266 88.764 74 88.764C73.1735 88.764 72.3469 88.8 71.5204 88.8359C72.311 87.7937 73.1375 86.7875 74 85.8531V85.8531ZM81.9782 93.4L80.6844 91.2437C82.05 91.4234 83.3438 91.639 84.5657 91.9265C84.1704 93.1125 83.7391 94.3703 83.2 95.6281C82.8047 94.8734 82.4094 94.1187 81.9782 93.4V93.4ZM62.3922 87.5781C61.7813 83.8046 62.2844 81.1453 63.7579 80.2828C64.1172 80.0671 64.5485 79.9593 65.0157 79.9593C67.1719 79.9593 69.8672 81.7203 72.5625 84.3796C71.3047 85.7453 70.0469 87.3265 68.825 89.0515C66.7407 89.2312 64.7641 89.5546 62.8954 89.95C62.6797 89.1234 62.536 88.3328 62.3922 87.5781ZM53.5157 98C53.5157 96.3109 55.5641 94.514 59.1579 93.1843C59.8766 92.8968 60.6672 92.6453 61.4579 92.4296C62.0329 94.2265 62.7516 96.1312 63.6141 98.0359C62.7516 99.9406 61.9969 101.809 61.4579 103.606C56.4985 102.169 53.5157 100.012 53.5157 98V98ZM63.7579 115.717C62.2844 114.855 61.7813 112.195 62.3922 108.422C62.5 107.667 62.6797 106.877 62.8954 106.05C64.7641 106.481 66.7407 106.769 68.825 106.948C70.0469 108.673 71.3047 110.219 72.5625 111.62C69.9032 114.244 67.2079 116.041 65.0157 116.041C64.5485 116.041 64.1172 115.933 63.7579 115.717ZM85.6079 108.422C86.2188 112.195 85.7157 114.855 84.2422 115.717C83.8829 115.933 83.4516 116.041 82.9844 116.041C80.8282 116.041 78.1329 114.28 75.4375 111.62C76.6954 110.255 77.9532 108.673 79.175 106.948C81.2594 106.769 83.236 106.445 85.1047 106.05C85.3204 106.877 85.4641 107.667 85.6079 108.422V108.422ZM88.8422 102.816C88.1235 103.103 87.3329 103.355 86.5422 103.57C85.9672 101.773 85.2485 99.8687 84.386 97.964C85.2485 96.0593 86.0032 94.1906 86.5422 92.3937C91.5016 93.8312 94.4844 95.9875 94.4844 98C94.4844 99.689 92.4 101.486 88.8422 102.816V102.816Z" fill="#61DAFB"/>
</svg>
