<svg width="189" height="170" viewBox="0 0 189 170" fill="none" xmlns="http://www.w3.org/2000/svg">
<path d="M94.5 0L176.339 42.5V127.5L94.5 170L12.6606 127.5V42.5L94.5 0Z" fill="#04C2C9"/>
<path d="M53.3125 96.5C52.519 96.5 51.875 95.856 51.875 95.0625V49.0625C51.875 46.6849 53.8099 44.75 56.1875 44.75H133.812C136.19 44.75 138.125 46.6849 138.125 49.0625V53.375C138.125 54.1685 137.481 54.8125 136.688 54.8125C135.894 54.8125 135.25 54.1685 135.25 53.375V49.0625C135.25 48.2719 134.603 47.625 133.812 47.625H56.1875C55.3969 47.625 54.75 48.2719 54.75 49.0625V95.0625C54.75 95.856 54.106 96.5 53.3125 96.5Z" fill="#444649"/>
<path d="M95 128.125H79.1875C78.394 128.125 77.75 127.481 77.75 126.688C77.75 125.894 78.394 125.25 79.1875 125.25H82.0625C84.4401 125.25 86.375 123.315 86.375 120.938V113.75C86.375 112.957 87.019 112.312 87.8125 112.312C88.606 112.312 89.25 112.957 89.25 113.75V120.938C89.25 122.556 88.7124 124.048 87.8096 125.25H95C95.7935 125.25 96.4375 125.894 96.4375 126.688C96.4375 127.481 95.7935 128.125 95 128.125Z" fill="#444649"/>
<path d="M93.5625 113.75H56.1875C53.8099 113.75 51.875 111.815 51.875 109.438V100.812C51.875 100.019 52.519 99.375 53.3125 99.375H93.5625C94.356 99.375 95 100.019 95 100.812C95 101.606 94.356 102.25 93.5625 102.25H54.75V109.438C54.75 110.228 55.3969 110.875 56.1875 110.875H93.5625C94.356 110.875 95 111.519 95 112.312C95 113.106 94.356 113.75 93.5625 113.75Z" fill="#444649"/>
<path d="M110.812 64.875H125.188C125.981 64.875 126.625 64.231 126.625 63.4375C126.625 62.644 125.981 62 125.188 62H110.812C110.019 62 109.375 62.644 109.375 63.4375C109.375 64.231 110.019 64.875 110.812 64.875Z" fill="#444649"/>
<path d="M116.562 122.375H119.438C120.231 122.375 120.875 121.731 120.875 120.938C120.875 120.144 120.231 119.5 119.438 119.5H116.562C115.769 119.5 115.125 120.144 115.125 120.938C115.125 121.731 115.769 122.375 116.562 122.375Z" fill="#444649"/>
<path d="M130.938 128.125H105.062C101.098 128.125 97.875 124.902 97.875 120.938V63.4375C97.875 59.4729 101.098 56.25 105.062 56.25H130.938C134.902 56.25 138.125 59.4729 138.125 63.4375V120.938C138.125 124.902 134.902 128.125 130.938 128.125ZM105.062 59.125C102.685 59.125 100.75 61.0599 100.75 63.4375V120.938C100.75 123.315 102.685 125.25 105.062 125.25H130.938C133.315 125.25 135.25 123.315 135.25 120.938V63.4375C135.25 61.0599 133.315 59.125 130.938 59.125H105.062Z" fill="#444649"/>
</svg>
