<svg width="189" height="170" viewBox="0 0 189 170" fill="none" xmlns="http://www.w3.org/2000/svg">
<path d="M94.5 0L176.339 42.5V127.5L94.5 170L12.6606 127.5V42.5L94.5 0Z" fill="#04C2C9"/>
<path d="M115.765 65.2355C114.302 63.7723 112.356 62.9667 110.288 62.9667C108.219 62.9667 106.274 63.7723 104.811 65.2355C103.348 66.6983 102.543 68.6434 102.543 70.7119C102.543 72.7807 103.348 74.7258 104.811 76.1887C106.274 77.6517 108.219 78.4569 110.287 78.4572C110.288 78.4572 110.288 78.4572 110.288 78.4572C112.356 78.4572 114.302 77.6517 115.765 76.1887C117.228 74.7256 118.033 72.7806 118.033 70.7119C118.033 68.6434 117.227 66.6984 115.765 65.2355ZM112.684 73.1079C112.044 73.7482 111.193 74.101 110.288 74.101C109.382 74.1008 108.532 73.7482 107.892 73.1079C107.252 72.4683 106.899 71.6175 106.899 70.712C106.899 69.8072 107.252 68.9561 107.892 68.3161C108.532 67.6761 109.383 67.3236 110.288 67.3236C111.193 67.3236 112.044 67.6759 112.684 68.3161C114.005 69.6372 114.005 71.7868 112.684 73.1079Z" fill="#444649"/>
<path d="M56.1625 112.13C55.6051 112.13 55.0478 111.918 54.6225 111.492C53.7717 110.642 53.7717 109.262 54.6225 108.411L67.2184 95.8152C68.0692 94.9646 69.4485 94.9646 70.2993 95.8152C71.15 96.6659 71.15 98.0457 70.2993 98.8963L57.7028 111.492C57.2776 111.918 56.7202 112.13 56.1625 112.13Z" fill="#444649"/>
<path d="M58.979 124.2C58.4213 124.2 57.864 123.987 57.4386 123.562C56.5878 122.711 56.5878 121.332 57.4386 120.481L70.5677 107.352C71.4185 106.501 72.7978 106.501 73.6482 107.352C74.499 108.203 74.499 109.582 73.6482 110.433L60.5193 123.562C60.0941 123.987 59.5363 124.2 58.979 124.2Z" fill="#444649"/>
<path d="M71.0484 127.016C70.4907 127.016 69.9333 126.804 69.508 126.378C68.6572 125.528 68.6572 124.148 69.508 123.298L82.1042 110.701C82.9548 109.851 84.3343 109.85 85.1847 110.701C86.0355 111.552 86.0355 112.931 85.1847 113.782L72.5888 126.378C72.1634 126.804 71.606 127.016 71.0484 127.016Z" fill="#444649"/>
<path d="M135.378 45.6225C134.883 45.128 134.181 44.9005 133.492 45.0117C133.238 45.0528 127.201 46.0444 118.973 49.1881C114.146 51.032 109.56 53.2403 105.342 55.7518C100.163 58.8354 95.5261 62.3897 91.5537 66.317L75.1023 69.5197C74.6777 69.6023 74.2875 69.81 73.9808 70.1151L59.0761 84.9719C58.3968 85.6488 58.2404 86.6898 58.6897 87.5365C59.0726 88.2576 59.8187 88.6933 60.613 88.6933C60.7513 88.6933 60.8908 88.6802 61.0303 88.6534L77.8415 85.3802C76.7472 87.5274 75.7233 89.7565 74.773 92.0667C74.439 92.88 74.6259 93.814 75.2474 94.4361L79.3656 98.5543L75.5396 102.38C74.6888 103.231 74.6888 104.61 75.5396 105.461C75.965 105.886 76.5223 106.099 77.0802 106.099C77.6376 106.099 78.1949 105.886 78.6203 105.461L82.4464 101.635L86.5646 105.754C86.9815 106.17 87.5386 106.392 88.1056 106.392C88.3843 106.392 88.6658 106.338 88.9335 106.228C91.244 105.277 93.4731 104.254 95.6197 103.16L92.3474 119.971C92.1642 120.912 92.6177 121.862 93.4639 122.311C93.7866 122.483 94.1369 122.566 94.485 122.566C95.0505 122.566 95.6095 122.345 96.028 121.925L110.885 107.021C111.19 106.714 111.397 106.324 111.48 105.899L114.683 89.4477C118.61 85.4748 122.164 80.8389 125.248 75.6591C127.759 71.4406 129.968 66.8549 131.812 62.0283C134.955 53.7999 135.947 47.7628 135.988 47.5095C136.099 46.8186 135.872 46.1166 135.378 45.6225ZM67.2152 83.0101L76.5864 73.6694L86.6689 71.7064C84.4822 74.3964 82.4536 77.2993 80.5915 80.406L67.2152 83.0101ZM107.33 104.414L97.9896 113.785L100.594 100.409C103.701 98.5467 106.603 96.5184 109.293 94.3313L107.33 104.414ZM127.701 60.5777C124.951 67.7503 119.88 78.0924 111.344 86.6287C107.414 90.558 102.839 94.0508 97.6717 97.0751C97.5792 97.1212 97.4894 97.1733 97.4046 97.2322C94.639 98.8356 91.7046 100.306 88.6099 101.637L85.5272 98.5539L91.7499 92.3317C92.6003 91.481 92.6003 90.1016 91.7499 89.2508C90.8991 88.4002 89.5198 88.4003 88.669 89.2508L82.4465 95.473L79.3638 92.39C80.6953 89.295 82.1653 86.3602 83.7692 83.5939C83.8276 83.5097 83.8786 83.4214 83.9245 83.33C86.9487 78.1621 90.4417 73.5858 94.3721 69.6554C102.908 61.1195 113.25 56.0487 120.423 53.2984C124.781 51.6266 128.533 50.5843 131.013 49.9867C130.415 52.4674 129.373 56.2194 127.701 60.5777Z" fill="#444649"/>
</svg>
