<svg width="189" height="170" viewBox="0 0 189 170" fill="none" xmlns="http://www.w3.org/2000/svg">
<path d="M94.5 0L176.339 42.5V127.5L94.5 170L12.6606 127.5V42.5L94.5 0Z" fill="#04C2C9"/>
<path d="M89.7833 84.8261C89.7833 87.9742 92.3378 90.5272 95.4845 90.5272C97.6953 90.5272 99.59 89.2565 100.536 87.4179L100.552 87.4323L110.959 68.6556L92.6885 79.8595L92.7058 79.8768C90.9707 80.8557 89.7833 82.6928 89.7833 84.8261Z" fill="#444649"/>
<path d="M118.453 57.6602C112.611 52.5542 105.062 49.294 96.4375 48.8066V57.4705C103.625 57.9276 107.86 60.2103 112.112 63.7725L118.453 57.6602Z" fill="#444649"/>
<path d="M122.522 82.125H131.176C130.595 73.5 127.222 66.4132 121.983 60.6057L115.861 66.6906C119.55 70.9168 121.976 76.375 122.522 82.125Z" fill="#444649"/>
<path d="M122.563 86.4371C121.647 100.812 109.737 112.213 95.1898 112.213C80.0457 112.213 67.2721 99.9309 67.2721 84.7882C67.2721 70.373 79.1875 58.5783 92.125 57.4714V48.8076C73.4375 49.9274 58.6471 65.6508 58.6471 84.8256C58.6471 104.725 75.0633 120.838 94.9627 120.838C114.271 120.838 130.311 105.125 131.232 86.4371H122.563Z" fill="#444649"/>
</svg>
