<svg width="189" height="170" viewBox="0 0 189 170" fill="none" xmlns="http://www.w3.org/2000/svg">
<path d="M94.5 0L176.339 42.5V127.5L94.5 170L12.6606 127.5V42.5L94.5 0Z" fill="#04C2C9"/>
<path d="M102.667 90.4218C102.667 89.7496 102.845 89.0894 103.181 88.5074C103.518 87.9254 104.001 87.4421 104.583 87.106C108.238 84.9967 111.094 81.7405 112.709 77.8424C114.324 73.9442 114.608 69.6221 113.516 65.5464C112.424 61.4707 110.018 57.8692 106.67 55.3004C103.323 52.7317 99.2213 51.3394 95.0019 51.3394C90.7824 51.3394 86.6809 52.7317 83.3335 55.3004C79.9861 57.8692 77.5798 61.4707 76.488 65.5464C75.3962 69.6221 75.6798 73.9442 77.2948 77.8424C78.9099 81.7405 81.7661 84.9967 85.4205 87.106C85.8708 87.3503 86.2676 87.6825 86.5874 88.0829C86.9072 88.4832 87.1434 88.9436 87.2822 89.4368C87.421 89.93 87.4596 90.4461 87.3955 90.9544C87.3315 91.4628 87.1662 91.9531 86.9094 92.3965C86.6526 92.8399 86.3095 93.2273 85.9004 93.5358C85.4913 93.8443 85.0245 94.0677 84.5277 94.1927C84.0308 94.3177 83.5139 94.3419 83.0075 94.2637C82.5011 94.1856 82.0155 94.0067 81.5795 93.7376C76.5479 90.833 72.595 86.3738 70.3148 81.0303C68.0345 75.6867 67.5502 69.7474 68.9345 64.105C70.3188 58.4625 73.497 53.4218 77.9914 49.7403C82.4858 46.0588 88.0537 43.9355 93.8583 43.6894C99.6628 43.4433 105.39 45.0877 110.18 48.3755C114.97 51.6633 118.564 56.417 120.421 61.922C122.278 67.4269 122.298 73.3859 120.478 78.9033C118.658 84.4208 115.097 89.1985 110.329 92.5186L110.333 95.4166C110.333 96.2215 110.08 97.006 109.61 97.659C109.139 98.3119 108.475 98.8001 107.711 99.0545L84.7113 106.721C83.7465 107.042 82.6936 106.967 81.7842 106.512C80.8748 106.057 80.1834 105.259 79.8621 104.295C79.5409 103.33 79.616 102.277 80.0711 101.368C80.5261 100.458 81.3238 99.7667 82.2886 99.4455L102.667 92.6566V90.4256V90.4218ZM105.289 105.195C105.766 105.036 106.271 104.973 106.773 105.009C107.275 105.045 107.765 105.179 108.216 105.404C108.666 105.63 109.068 105.942 109.397 106.322C109.727 106.703 109.979 107.144 110.138 107.622C110.297 108.1 110.36 108.604 110.324 109.106C110.289 109.609 110.154 110.099 109.929 110.549C109.704 110.999 109.392 111.401 109.011 111.731C108.631 112.06 108.189 112.312 107.711 112.471L84.7113 120.138C84.2336 120.297 83.7292 120.36 83.2269 120.324C82.7247 120.289 82.2345 120.154 81.7842 119.929C80.8748 119.474 80.1834 118.676 79.8621 117.711C79.5409 116.746 79.616 115.694 80.0711 114.784C80.5261 113.875 81.3238 113.183 82.2886 112.862L105.289 105.195Z" fill="#444649"/>
</svg>
